<mxfile host="app.diagrams.net" modified="2023-09-19T06:40:22.445Z" agent="Mozilla/5.0 (Windows NT 10.0; Win64; x64) AppleWebKit/537.36 (KHTML, like Gecko) Chrome/115.0.0.0 Safari/537.36" etag="W6b8FCIlypQtovI7lQYv" version="21.7.5" type="github">
  <diagram name="第 1 页" id="it9TJO6Uga_pfBJdDB2V">
    <mxGraphModel dx="2665" dy="2183" grid="1" gridSize="10" guides="1" tooltips="1" connect="1" arrows="1" fold="1" page="1" pageScale="1" pageWidth="827" pageHeight="1169" background="none" math="0" shadow="0">
      <root>
        <mxCell id="0" />
        <mxCell id="1" parent="0" />
        <mxCell id="ZVxdiT1ZG7eHf5slKZ1F-64" value="" style="edgeStyle=orthogonalEdgeStyle;rounded=0;orthogonalLoop=1;jettySize=auto;html=1;" edge="1" parent="1" source="ZVxdiT1ZG7eHf5slKZ1F-1" target="ZVxdiT1ZG7eHf5slKZ1F-63">
          <mxGeometry relative="1" as="geometry" />
        </mxCell>
        <mxCell id="ZVxdiT1ZG7eHf5slKZ1F-1" value="新建项目文件夹" style="rounded=1;whiteSpace=wrap;html=1;fillColor=#f5f5f5;strokeColor=#666666;gradientColor=#b3b3b3;" vertex="1" parent="1">
          <mxGeometry x="-250" y="340" width="90" height="60" as="geometry" />
        </mxCell>
        <mxCell id="ZVxdiT1ZG7eHf5slKZ1F-41" value="" style="edgeStyle=orthogonalEdgeStyle;rounded=0;orthogonalLoop=1;jettySize=auto;html=1;fillColor=#b1ddf0;strokeColor=#10739e;" edge="1" parent="1" source="ZVxdiT1ZG7eHf5slKZ1F-2" target="ZVxdiT1ZG7eHf5slKZ1F-14">
          <mxGeometry relative="1" as="geometry" />
        </mxCell>
        <mxCell id="ZVxdiT1ZG7eHf5slKZ1F-42" style="edgeStyle=orthogonalEdgeStyle;rounded=0;orthogonalLoop=1;jettySize=auto;html=1;entryX=0;entryY=0.5;entryDx=0;entryDy=0;fillColor=#b1ddf0;strokeColor=#10739e;" edge="1" parent="1" source="ZVxdiT1ZG7eHf5slKZ1F-2" target="ZVxdiT1ZG7eHf5slKZ1F-13">
          <mxGeometry relative="1" as="geometry" />
        </mxCell>
        <mxCell id="ZVxdiT1ZG7eHf5slKZ1F-43" style="edgeStyle=orthogonalEdgeStyle;rounded=0;orthogonalLoop=1;jettySize=auto;html=1;entryX=0;entryY=0.75;entryDx=0;entryDy=0;fillColor=#b1ddf0;strokeColor=#10739e;" edge="1" parent="1" source="ZVxdiT1ZG7eHf5slKZ1F-2" target="ZVxdiT1ZG7eHf5slKZ1F-15">
          <mxGeometry relative="1" as="geometry" />
        </mxCell>
        <mxCell id="ZVxdiT1ZG7eHf5slKZ1F-2" value="联动Fortify" style="whiteSpace=wrap;html=1;rounded=1;fillColor=#b1ddf0;strokeColor=#10739e;" vertex="1" parent="1">
          <mxGeometry x="180" y="60" width="120" height="60" as="geometry" />
        </mxCell>
        <mxCell id="ZVxdiT1ZG7eHf5slKZ1F-38" value="" style="edgeStyle=orthogonalEdgeStyle;rounded=0;orthogonalLoop=1;jettySize=auto;html=1;fillColor=#e1d5e7;strokeColor=#9673a6;" edge="1" parent="1" source="ZVxdiT1ZG7eHf5slKZ1F-4" target="ZVxdiT1ZG7eHf5slKZ1F-17">
          <mxGeometry relative="1" as="geometry" />
        </mxCell>
        <mxCell id="ZVxdiT1ZG7eHf5slKZ1F-44" style="edgeStyle=orthogonalEdgeStyle;rounded=0;orthogonalLoop=1;jettySize=auto;html=1;entryX=0;entryY=0.5;entryDx=0;entryDy=0;fillColor=#e1d5e7;strokeColor=#9673a6;" edge="1" parent="1" source="ZVxdiT1ZG7eHf5slKZ1F-4" target="ZVxdiT1ZG7eHf5slKZ1F-18">
          <mxGeometry relative="1" as="geometry" />
        </mxCell>
        <mxCell id="ZVxdiT1ZG7eHf5slKZ1F-45" style="edgeStyle=orthogonalEdgeStyle;rounded=0;orthogonalLoop=1;jettySize=auto;html=1;entryX=0;entryY=0.5;entryDx=0;entryDy=0;fillColor=#e1d5e7;strokeColor=#9673a6;" edge="1" parent="1" source="ZVxdiT1ZG7eHf5slKZ1F-4" target="ZVxdiT1ZG7eHf5slKZ1F-25">
          <mxGeometry relative="1" as="geometry" />
        </mxCell>
        <mxCell id="ZVxdiT1ZG7eHf5slKZ1F-4" value="联动SCA" style="whiteSpace=wrap;html=1;rounded=1;fillColor=#e1d5e7;strokeColor=#9673a6;" vertex="1" parent="1">
          <mxGeometry x="180" y="340" width="120" height="60" as="geometry" />
        </mxCell>
        <mxCell id="ZVxdiT1ZG7eHf5slKZ1F-47" value="" style="edgeStyle=orthogonalEdgeStyle;rounded=0;orthogonalLoop=1;jettySize=auto;html=1;fillColor=#1ba1e2;strokeColor=#006EAF;" edge="1" parent="1" source="ZVxdiT1ZG7eHf5slKZ1F-8" target="ZVxdiT1ZG7eHf5slKZ1F-29">
          <mxGeometry relative="1" as="geometry" />
        </mxCell>
        <mxCell id="ZVxdiT1ZG7eHf5slKZ1F-49" style="edgeStyle=orthogonalEdgeStyle;rounded=0;orthogonalLoop=1;jettySize=auto;html=1;entryX=0;entryY=0.5;entryDx=0;entryDy=0;fillColor=#1ba1e2;strokeColor=#006EAF;" edge="1" parent="1" source="ZVxdiT1ZG7eHf5slKZ1F-8" target="ZVxdiT1ZG7eHf5slKZ1F-28">
          <mxGeometry relative="1" as="geometry" />
        </mxCell>
        <mxCell id="ZVxdiT1ZG7eHf5slKZ1F-50" style="edgeStyle=orthogonalEdgeStyle;rounded=0;orthogonalLoop=1;jettySize=auto;html=1;entryX=0;entryY=0.5;entryDx=0;entryDy=0;fillColor=#1ba1e2;strokeColor=#006EAF;" edge="1" parent="1" source="ZVxdiT1ZG7eHf5slKZ1F-8" target="ZVxdiT1ZG7eHf5slKZ1F-30">
          <mxGeometry relative="1" as="geometry" />
        </mxCell>
        <mxCell id="ZVxdiT1ZG7eHf5slKZ1F-8" value="联动自定义规则" style="whiteSpace=wrap;html=1;rounded=1;fillColor=#1ba1e2;strokeColor=#006EAF;fontColor=#ffffff;" vertex="1" parent="1">
          <mxGeometry x="190" y="630" width="120" height="60" as="geometry" />
        </mxCell>
        <mxCell id="ZVxdiT1ZG7eHf5slKZ1F-12" value="" style="edgeStyle=orthogonalEdgeStyle;rounded=0;orthogonalLoop=1;jettySize=auto;html=1;fillColor=#e3c800;strokeColor=#B09500;" edge="1" parent="1" source="ZVxdiT1ZG7eHf5slKZ1F-10" target="ZVxdiT1ZG7eHf5slKZ1F-11">
          <mxGeometry relative="1" as="geometry" />
        </mxCell>
        <mxCell id="ZVxdiT1ZG7eHf5slKZ1F-10" value="邮件、企微通知项目负责人审核" style="rounded=1;whiteSpace=wrap;html=1;fillColor=#ffcd28;strokeColor=#d79b00;gradientColor=#ffa500;" vertex="1" parent="1">
          <mxGeometry x="880" y="430" width="120" height="60" as="geometry" />
        </mxCell>
        <mxCell id="ZVxdiT1ZG7eHf5slKZ1F-11" value="确认漏洞录入漏洞平台发送至开发修复" style="whiteSpace=wrap;html=1;rounded=1;fillColor=#ffcd28;strokeColor=#d79b00;gradientColor=#ffa500;" vertex="1" parent="1">
          <mxGeometry x="1060" y="430" width="120" height="60" as="geometry" />
        </mxCell>
        <mxCell id="ZVxdiT1ZG7eHf5slKZ1F-13" value="Clean" style="rounded=1;whiteSpace=wrap;html=1;fillColor=#b1ddf0;strokeColor=#10739e;" vertex="1" parent="1">
          <mxGeometry x="370" y="-50" width="120" height="60" as="geometry" />
        </mxCell>
        <mxCell id="ZVxdiT1ZG7eHf5slKZ1F-14" value="Translation" style="rounded=1;whiteSpace=wrap;html=1;fillColor=#b1ddf0;strokeColor=#10739e;" vertex="1" parent="1">
          <mxGeometry x="370" y="60" width="120" height="60" as="geometry" />
        </mxCell>
        <mxCell id="ZVxdiT1ZG7eHf5slKZ1F-21" value="" style="edgeStyle=orthogonalEdgeStyle;rounded=0;orthogonalLoop=1;jettySize=auto;html=1;fillColor=#b1ddf0;strokeColor=#10739e;" edge="1" parent="1" source="ZVxdiT1ZG7eHf5slKZ1F-15" target="ZVxdiT1ZG7eHf5slKZ1F-19">
          <mxGeometry relative="1" as="geometry">
            <Array as="points">
              <mxPoint x="530" y="180" />
              <mxPoint x="530" y="250" />
            </Array>
          </mxGeometry>
        </mxCell>
        <mxCell id="ZVxdiT1ZG7eHf5slKZ1F-23" style="edgeStyle=orthogonalEdgeStyle;rounded=0;orthogonalLoop=1;jettySize=auto;html=1;entryX=0;entryY=0.5;entryDx=0;entryDy=0;fillColor=#b1ddf0;strokeColor=#10739e;" edge="1" parent="1" source="ZVxdiT1ZG7eHf5slKZ1F-15" target="ZVxdiT1ZG7eHf5slKZ1F-22">
          <mxGeometry relative="1" as="geometry" />
        </mxCell>
        <mxCell id="ZVxdiT1ZG7eHf5slKZ1F-15" value="Scan" style="rounded=1;whiteSpace=wrap;html=1;fillColor=#b1ddf0;strokeColor=#10739e;" vertex="1" parent="1">
          <mxGeometry x="370" y="150" width="120" height="60" as="geometry" />
        </mxCell>
        <mxCell id="ZVxdiT1ZG7eHf5slKZ1F-17" value="Upload" style="rounded=1;whiteSpace=wrap;html=1;fillColor=#e1d5e7;strokeColor=#9673a6;" vertex="1" parent="1">
          <mxGeometry x="370" y="340" width="120" height="60" as="geometry" />
        </mxCell>
        <mxCell id="ZVxdiT1ZG7eHf5slKZ1F-18" value="Mvn install" style="rounded=1;whiteSpace=wrap;html=1;fillColor=#e1d5e7;strokeColor=#9673a6;" vertex="1" parent="1">
          <mxGeometry x="370" y="250" width="120" height="60" as="geometry" />
        </mxCell>
        <mxCell id="ZVxdiT1ZG7eHf5slKZ1F-54" style="edgeStyle=orthogonalEdgeStyle;rounded=0;orthogonalLoop=1;jettySize=auto;html=1;entryX=0;entryY=0.5;entryDx=0;entryDy=0;fillColor=#e3c800;strokeColor=#B09500;" edge="1" parent="1" source="ZVxdiT1ZG7eHf5slKZ1F-19" target="ZVxdiT1ZG7eHf5slKZ1F-10">
          <mxGeometry relative="1" as="geometry" />
        </mxCell>
        <mxCell id="ZVxdiT1ZG7eHf5slKZ1F-19" value="FPR report" style="rounded=1;whiteSpace=wrap;html=1;fillColor=#b1ddf0;strokeColor=#10739e;" vertex="1" parent="1">
          <mxGeometry x="570" y="220" width="120" height="60" as="geometry" />
        </mxCell>
        <mxCell id="ZVxdiT1ZG7eHf5slKZ1F-71" value="" style="edgeStyle=orthogonalEdgeStyle;rounded=0;orthogonalLoop=1;jettySize=auto;html=1;" edge="1" parent="1" source="ZVxdiT1ZG7eHf5slKZ1F-22" target="ZVxdiT1ZG7eHf5slKZ1F-69">
          <mxGeometry relative="1" as="geometry" />
        </mxCell>
        <mxCell id="ZVxdiT1ZG7eHf5slKZ1F-22" value="XML report" style="rounded=1;whiteSpace=wrap;html=1;fillColor=#b1ddf0;strokeColor=#10739e;" vertex="1" parent="1">
          <mxGeometry x="570" y="90" width="120" height="60" as="geometry" />
        </mxCell>
        <mxCell id="ZVxdiT1ZG7eHf5slKZ1F-37" value="" style="edgeStyle=orthogonalEdgeStyle;rounded=0;orthogonalLoop=1;jettySize=auto;html=1;fillColor=#f5f5f5;gradientColor=#b3b3b3;strokeColor=#666666;" edge="1" parent="1" source="ZVxdiT1ZG7eHf5slKZ1F-24" target="ZVxdiT1ZG7eHf5slKZ1F-4">
          <mxGeometry relative="1" as="geometry" />
        </mxCell>
        <mxCell id="ZVxdiT1ZG7eHf5slKZ1F-39" style="edgeStyle=orthogonalEdgeStyle;rounded=0;orthogonalLoop=1;jettySize=auto;html=1;entryX=0;entryY=0.5;entryDx=0;entryDy=0;fillColor=#f5f5f5;gradientColor=#b3b3b3;strokeColor=#666666;" edge="1" parent="1" source="ZVxdiT1ZG7eHf5slKZ1F-24" target="ZVxdiT1ZG7eHf5slKZ1F-2">
          <mxGeometry relative="1" as="geometry" />
        </mxCell>
        <mxCell id="ZVxdiT1ZG7eHf5slKZ1F-48" style="edgeStyle=orthogonalEdgeStyle;rounded=0;orthogonalLoop=1;jettySize=auto;html=1;entryX=0;entryY=0.5;entryDx=0;entryDy=0;fillColor=#f5f5f5;gradientColor=#b3b3b3;strokeColor=#666666;" edge="1" parent="1" source="ZVxdiT1ZG7eHf5slKZ1F-24" target="ZVxdiT1ZG7eHf5slKZ1F-8">
          <mxGeometry relative="1" as="geometry">
            <Array as="points">
              <mxPoint x="150" y="370" />
              <mxPoint x="150" y="660" />
            </Array>
          </mxGeometry>
        </mxCell>
        <mxCell id="ZVxdiT1ZG7eHf5slKZ1F-24" value="Git clone&lt;br&gt;webhook:&lt;br&gt;push events" style="rounded=1;whiteSpace=wrap;html=1;fillColor=#f5f5f5;gradientColor=#b3b3b3;strokeColor=#666666;" vertex="1" parent="1">
          <mxGeometry y="340" width="120" height="60" as="geometry" />
        </mxCell>
        <mxCell id="ZVxdiT1ZG7eHf5slKZ1F-27" value="" style="edgeStyle=orthogonalEdgeStyle;rounded=0;orthogonalLoop=1;jettySize=auto;html=1;fillColor=#e1d5e7;strokeColor=#9673a6;" edge="1" parent="1" source="ZVxdiT1ZG7eHf5slKZ1F-25" target="ZVxdiT1ZG7eHf5slKZ1F-26">
          <mxGeometry relative="1" as="geometry" />
        </mxCell>
        <mxCell id="ZVxdiT1ZG7eHf5slKZ1F-25" value="Scan" style="rounded=1;whiteSpace=wrap;html=1;fillColor=#e1d5e7;strokeColor=#9673a6;" vertex="1" parent="1">
          <mxGeometry x="370" y="430" width="120" height="60" as="geometry" />
        </mxCell>
        <mxCell id="ZVxdiT1ZG7eHf5slKZ1F-52" style="edgeStyle=orthogonalEdgeStyle;rounded=0;orthogonalLoop=1;jettySize=auto;html=1;entryX=0;entryY=0.5;entryDx=0;entryDy=0;fillColor=#e3c800;strokeColor=#B09500;" edge="1" parent="1" source="ZVxdiT1ZG7eHf5slKZ1F-26" target="ZVxdiT1ZG7eHf5slKZ1F-10">
          <mxGeometry relative="1" as="geometry">
            <mxPoint x="810" y="460" as="targetPoint" />
          </mxGeometry>
        </mxCell>
        <mxCell id="ZVxdiT1ZG7eHf5slKZ1F-26" value="平台查看结果" style="whiteSpace=wrap;html=1;rounded=1;fillColor=#e1d5e7;strokeColor=#9673a6;" vertex="1" parent="1">
          <mxGeometry x="570" y="430" width="120" height="60" as="geometry" />
        </mxCell>
        <mxCell id="ZVxdiT1ZG7eHf5slKZ1F-35" style="edgeStyle=orthogonalEdgeStyle;rounded=0;orthogonalLoop=1;jettySize=auto;html=1;entryX=0;entryY=0.5;entryDx=0;entryDy=0;fillColor=#1ba1e2;strokeColor=#006EAF;" edge="1" parent="1" source="ZVxdiT1ZG7eHf5slKZ1F-28" target="ZVxdiT1ZG7eHf5slKZ1F-31">
          <mxGeometry relative="1" as="geometry" />
        </mxCell>
        <mxCell id="ZVxdiT1ZG7eHf5slKZ1F-28" value="越权检测" style="rounded=1;whiteSpace=wrap;html=1;fillColor=#1ba1e2;strokeColor=#006EAF;fontColor=#ffffff;" vertex="1" parent="1">
          <mxGeometry x="370" y="540" width="120" height="60" as="geometry" />
        </mxCell>
        <mxCell id="ZVxdiT1ZG7eHf5slKZ1F-33" value="" style="edgeStyle=orthogonalEdgeStyle;rounded=0;orthogonalLoop=1;jettySize=auto;html=1;fillColor=#1ba1e2;strokeColor=#006EAF;" edge="1" parent="1" source="ZVxdiT1ZG7eHf5slKZ1F-29" target="ZVxdiT1ZG7eHf5slKZ1F-31">
          <mxGeometry relative="1" as="geometry" />
        </mxCell>
        <mxCell id="ZVxdiT1ZG7eHf5slKZ1F-29" value="SQL注入检测" style="rounded=1;whiteSpace=wrap;html=1;fillColor=#1ba1e2;fontColor=#ffffff;strokeColor=#006EAF;" vertex="1" parent="1">
          <mxGeometry x="370" y="630" width="120" height="60" as="geometry" />
        </mxCell>
        <mxCell id="ZVxdiT1ZG7eHf5slKZ1F-34" style="edgeStyle=orthogonalEdgeStyle;rounded=0;orthogonalLoop=1;jettySize=auto;html=1;entryX=0;entryY=0.5;entryDx=0;entryDy=0;fillColor=#1ba1e2;strokeColor=#006EAF;" edge="1" parent="1" source="ZVxdiT1ZG7eHf5slKZ1F-30" target="ZVxdiT1ZG7eHf5slKZ1F-31">
          <mxGeometry relative="1" as="geometry" />
        </mxCell>
        <mxCell id="ZVxdiT1ZG7eHf5slKZ1F-30" value="Actuator未授权访问" style="rounded=1;whiteSpace=wrap;html=1;fillColor=#1ba1e2;fontColor=#ffffff;strokeColor=#006EAF;" vertex="1" parent="1">
          <mxGeometry x="370" y="720" width="120" height="60" as="geometry" />
        </mxCell>
        <mxCell id="ZVxdiT1ZG7eHf5slKZ1F-51" style="edgeStyle=orthogonalEdgeStyle;rounded=0;orthogonalLoop=1;jettySize=auto;html=1;entryX=0;entryY=0.5;entryDx=0;entryDy=0;fillColor=#e3c800;strokeColor=#B09500;" edge="1" parent="1" source="ZVxdiT1ZG7eHf5slKZ1F-31" target="ZVxdiT1ZG7eHf5slKZ1F-10">
          <mxGeometry relative="1" as="geometry" />
        </mxCell>
        <mxCell id="ZVxdiT1ZG7eHf5slKZ1F-31" value="邮件查看结果" style="whiteSpace=wrap;html=1;rounded=1;fillColor=#1ba1e2;fontColor=#ffffff;strokeColor=#006EAF;" vertex="1" parent="1">
          <mxGeometry x="570" y="630" width="120" height="60" as="geometry" />
        </mxCell>
        <mxCell id="ZVxdiT1ZG7eHf5slKZ1F-59" value="" style="edgeStyle=orthogonalEdgeStyle;rounded=0;orthogonalLoop=1;jettySize=auto;html=1;" edge="1" parent="1" source="ZVxdiT1ZG7eHf5slKZ1F-57" target="ZVxdiT1ZG7eHf5slKZ1F-1">
          <mxGeometry relative="1" as="geometry" />
        </mxCell>
        <mxCell id="ZVxdiT1ZG7eHf5slKZ1F-68" style="edgeStyle=orthogonalEdgeStyle;rounded=0;orthogonalLoop=1;jettySize=auto;html=1;entryX=0;entryY=0.5;entryDx=0;entryDy=0;" edge="1" parent="1" source="ZVxdiT1ZG7eHf5slKZ1F-57" target="ZVxdiT1ZG7eHf5slKZ1F-63">
          <mxGeometry relative="1" as="geometry">
            <mxPoint x="-110" y="420" as="targetPoint" />
            <Array as="points">
              <mxPoint x="-345" y="460" />
              <mxPoint x="-140" y="460" />
              <mxPoint x="-140" y="370" />
            </Array>
          </mxGeometry>
        </mxCell>
        <mxCell id="ZVxdiT1ZG7eHf5slKZ1F-57" value="已有项目文件夹" style="rhombus;whiteSpace=wrap;html=1;rounded=1;fillColor=#f5f5f5;strokeColor=#666666;gradientColor=#b3b3b3;" vertex="1" parent="1">
          <mxGeometry x="-390" y="330" width="90" height="80" as="geometry" />
        </mxCell>
        <mxCell id="ZVxdiT1ZG7eHf5slKZ1F-61" value="否" style="text;html=1;align=center;verticalAlign=middle;resizable=0;points=[];autosize=1;strokeColor=none;fillColor=none;" vertex="1" parent="1">
          <mxGeometry x="-290" y="340" width="40" height="30" as="geometry" />
        </mxCell>
        <mxCell id="ZVxdiT1ZG7eHf5slKZ1F-65" value="" style="edgeStyle=orthogonalEdgeStyle;rounded=0;orthogonalLoop=1;jettySize=auto;html=1;" edge="1" parent="1" source="ZVxdiT1ZG7eHf5slKZ1F-63" target="ZVxdiT1ZG7eHf5slKZ1F-24">
          <mxGeometry relative="1" as="geometry" />
        </mxCell>
        <mxCell id="ZVxdiT1ZG7eHf5slKZ1F-63" value="新建项目" style="whiteSpace=wrap;html=1;rounded=1;fillColor=#f5f5f5;gradientColor=#b3b3b3;strokeColor=#666666;" vertex="1" parent="1">
          <mxGeometry x="-110" y="340" width="80" height="60" as="geometry" />
        </mxCell>
        <mxCell id="ZVxdiT1ZG7eHf5slKZ1F-67" value="是" style="text;html=1;align=center;verticalAlign=middle;resizable=0;points=[];autosize=1;strokeColor=none;fillColor=none;" vertex="1" parent="1">
          <mxGeometry x="-290" y="430" width="40" height="30" as="geometry" />
        </mxCell>
        <mxCell id="ZVxdiT1ZG7eHf5slKZ1F-72" value="" style="edgeStyle=orthogonalEdgeStyle;rounded=0;orthogonalLoop=1;jettySize=auto;html=1;" edge="1" parent="1" source="ZVxdiT1ZG7eHf5slKZ1F-69" target="ZVxdiT1ZG7eHf5slKZ1F-70">
          <mxGeometry relative="1" as="geometry" />
        </mxCell>
        <mxCell id="ZVxdiT1ZG7eHf5slKZ1F-69" value="解析XML" style="rounded=1;whiteSpace=wrap;html=1;fillColor=#b1ddf0;strokeColor=#10739e;" vertex="1" parent="1">
          <mxGeometry x="737" y="90" width="90" height="60" as="geometry" />
        </mxCell>
        <mxCell id="ZVxdiT1ZG7eHf5slKZ1F-73" style="edgeStyle=orthogonalEdgeStyle;rounded=0;orthogonalLoop=1;jettySize=auto;html=1;entryX=0.418;entryY=-0.097;entryDx=0;entryDy=0;entryPerimeter=0;fillColor=#e3c800;strokeColor=#B09500;" edge="1" parent="1" source="ZVxdiT1ZG7eHf5slKZ1F-70" target="ZVxdiT1ZG7eHf5slKZ1F-10">
          <mxGeometry relative="1" as="geometry" />
        </mxCell>
        <mxCell id="ZVxdiT1ZG7eHf5slKZ1F-70" value="比较两次结果&lt;br&gt;排除忽略、误报&lt;br&gt;输出增量漏洞" style="rounded=1;whiteSpace=wrap;html=1;fillColor=#b1ddf0;strokeColor=#10739e;" vertex="1" parent="1">
          <mxGeometry x="870" y="90" width="120" height="60" as="geometry" />
        </mxCell>
        <mxCell id="ZVxdiT1ZG7eHf5slKZ1F-129" value="" style="edgeStyle=orthogonalEdgeStyle;rounded=0;orthogonalLoop=1;jettySize=auto;html=1;" edge="1" parent="1" source="ZVxdiT1ZG7eHf5slKZ1F-130" target="ZVxdiT1ZG7eHf5slKZ1F-178">
          <mxGeometry relative="1" as="geometry" />
        </mxCell>
        <mxCell id="ZVxdiT1ZG7eHf5slKZ1F-130" value="新建项目文件夹" style="rounded=1;whiteSpace=wrap;html=1;" vertex="1" parent="1">
          <mxGeometry x="-250" y="1250" width="90" height="60" as="geometry" />
        </mxCell>
        <mxCell id="ZVxdiT1ZG7eHf5slKZ1F-131" value="" style="edgeStyle=orthogonalEdgeStyle;rounded=0;orthogonalLoop=1;jettySize=auto;html=1;" edge="1" parent="1" source="ZVxdiT1ZG7eHf5slKZ1F-134" target="ZVxdiT1ZG7eHf5slKZ1F-147">
          <mxGeometry relative="1" as="geometry" />
        </mxCell>
        <mxCell id="ZVxdiT1ZG7eHf5slKZ1F-132" style="edgeStyle=orthogonalEdgeStyle;rounded=0;orthogonalLoop=1;jettySize=auto;html=1;entryX=0;entryY=0.5;entryDx=0;entryDy=0;" edge="1" parent="1" source="ZVxdiT1ZG7eHf5slKZ1F-134" target="ZVxdiT1ZG7eHf5slKZ1F-146">
          <mxGeometry relative="1" as="geometry" />
        </mxCell>
        <mxCell id="ZVxdiT1ZG7eHf5slKZ1F-133" style="edgeStyle=orthogonalEdgeStyle;rounded=0;orthogonalLoop=1;jettySize=auto;html=1;entryX=0;entryY=0.75;entryDx=0;entryDy=0;" edge="1" parent="1" source="ZVxdiT1ZG7eHf5slKZ1F-134" target="ZVxdiT1ZG7eHf5slKZ1F-150">
          <mxGeometry relative="1" as="geometry" />
        </mxCell>
        <mxCell id="ZVxdiT1ZG7eHf5slKZ1F-134" value="联动Fortify" style="whiteSpace=wrap;html=1;rounded=1;" vertex="1" parent="1">
          <mxGeometry x="180" y="970" width="120" height="60" as="geometry" />
        </mxCell>
        <mxCell id="ZVxdiT1ZG7eHf5slKZ1F-135" value="" style="edgeStyle=orthogonalEdgeStyle;rounded=0;orthogonalLoop=1;jettySize=auto;html=1;" edge="1" parent="1" source="ZVxdiT1ZG7eHf5slKZ1F-138" target="ZVxdiT1ZG7eHf5slKZ1F-151">
          <mxGeometry relative="1" as="geometry" />
        </mxCell>
        <mxCell id="ZVxdiT1ZG7eHf5slKZ1F-136" style="edgeStyle=orthogonalEdgeStyle;rounded=0;orthogonalLoop=1;jettySize=auto;html=1;entryX=0;entryY=0.5;entryDx=0;entryDy=0;" edge="1" parent="1" source="ZVxdiT1ZG7eHf5slKZ1F-138" target="ZVxdiT1ZG7eHf5slKZ1F-152">
          <mxGeometry relative="1" as="geometry" />
        </mxCell>
        <mxCell id="ZVxdiT1ZG7eHf5slKZ1F-137" style="edgeStyle=orthogonalEdgeStyle;rounded=0;orthogonalLoop=1;jettySize=auto;html=1;entryX=0;entryY=0.5;entryDx=0;entryDy=0;" edge="1" parent="1" source="ZVxdiT1ZG7eHf5slKZ1F-138" target="ZVxdiT1ZG7eHf5slKZ1F-162">
          <mxGeometry relative="1" as="geometry" />
        </mxCell>
        <mxCell id="ZVxdiT1ZG7eHf5slKZ1F-138" value="联动SCA" style="whiteSpace=wrap;html=1;rounded=1;" vertex="1" parent="1">
          <mxGeometry x="180" y="1250" width="120" height="60" as="geometry" />
        </mxCell>
        <mxCell id="ZVxdiT1ZG7eHf5slKZ1F-139" value="" style="edgeStyle=orthogonalEdgeStyle;rounded=0;orthogonalLoop=1;jettySize=auto;html=1;" edge="1" parent="1" source="ZVxdiT1ZG7eHf5slKZ1F-142" target="ZVxdiT1ZG7eHf5slKZ1F-168">
          <mxGeometry relative="1" as="geometry" />
        </mxCell>
        <mxCell id="ZVxdiT1ZG7eHf5slKZ1F-140" style="edgeStyle=orthogonalEdgeStyle;rounded=0;orthogonalLoop=1;jettySize=auto;html=1;entryX=0;entryY=0.5;entryDx=0;entryDy=0;" edge="1" parent="1" source="ZVxdiT1ZG7eHf5slKZ1F-142" target="ZVxdiT1ZG7eHf5slKZ1F-166">
          <mxGeometry relative="1" as="geometry" />
        </mxCell>
        <mxCell id="ZVxdiT1ZG7eHf5slKZ1F-141" style="edgeStyle=orthogonalEdgeStyle;rounded=0;orthogonalLoop=1;jettySize=auto;html=1;entryX=0;entryY=0.5;entryDx=0;entryDy=0;" edge="1" parent="1" source="ZVxdiT1ZG7eHf5slKZ1F-142" target="ZVxdiT1ZG7eHf5slKZ1F-170">
          <mxGeometry relative="1" as="geometry" />
        </mxCell>
        <mxCell id="ZVxdiT1ZG7eHf5slKZ1F-142" value="联动自定义规则" style="whiteSpace=wrap;html=1;rounded=1;" vertex="1" parent="1">
          <mxGeometry x="190" y="1540" width="120" height="60" as="geometry" />
        </mxCell>
        <mxCell id="ZVxdiT1ZG7eHf5slKZ1F-143" value="" style="edgeStyle=orthogonalEdgeStyle;rounded=0;orthogonalLoop=1;jettySize=auto;html=1;" edge="1" parent="1" source="ZVxdiT1ZG7eHf5slKZ1F-144" target="ZVxdiT1ZG7eHf5slKZ1F-145">
          <mxGeometry relative="1" as="geometry" />
        </mxCell>
        <mxCell id="ZVxdiT1ZG7eHf5slKZ1F-144" value="邮件、企微通知项目负责人审核" style="rounded=1;whiteSpace=wrap;html=1;" vertex="1" parent="1">
          <mxGeometry x="880" y="1340" width="120" height="60" as="geometry" />
        </mxCell>
        <mxCell id="ZVxdiT1ZG7eHf5slKZ1F-145" value="确认漏洞录入漏洞平台发送至开发修复" style="whiteSpace=wrap;html=1;rounded=1;" vertex="1" parent="1">
          <mxGeometry x="1060" y="1340" width="120" height="60" as="geometry" />
        </mxCell>
        <mxCell id="ZVxdiT1ZG7eHf5slKZ1F-146" value="Clean" style="rounded=1;whiteSpace=wrap;html=1;" vertex="1" parent="1">
          <mxGeometry x="370" y="860" width="120" height="60" as="geometry" />
        </mxCell>
        <mxCell id="ZVxdiT1ZG7eHf5slKZ1F-147" value="Translation" style="rounded=1;whiteSpace=wrap;html=1;" vertex="1" parent="1">
          <mxGeometry x="370" y="970" width="120" height="60" as="geometry" />
        </mxCell>
        <mxCell id="ZVxdiT1ZG7eHf5slKZ1F-148" value="" style="edgeStyle=orthogonalEdgeStyle;rounded=0;orthogonalLoop=1;jettySize=auto;html=1;" edge="1" parent="1" source="ZVxdiT1ZG7eHf5slKZ1F-150" target="ZVxdiT1ZG7eHf5slKZ1F-154">
          <mxGeometry relative="1" as="geometry">
            <Array as="points">
              <mxPoint x="530" y="1090" />
              <mxPoint x="530" y="1160" />
            </Array>
          </mxGeometry>
        </mxCell>
        <mxCell id="ZVxdiT1ZG7eHf5slKZ1F-149" style="edgeStyle=orthogonalEdgeStyle;rounded=0;orthogonalLoop=1;jettySize=auto;html=1;entryX=0;entryY=0.5;entryDx=0;entryDy=0;" edge="1" parent="1" source="ZVxdiT1ZG7eHf5slKZ1F-150" target="ZVxdiT1ZG7eHf5slKZ1F-156">
          <mxGeometry relative="1" as="geometry" />
        </mxCell>
        <mxCell id="ZVxdiT1ZG7eHf5slKZ1F-150" value="Scan" style="rounded=1;whiteSpace=wrap;html=1;" vertex="1" parent="1">
          <mxGeometry x="370" y="1060" width="120" height="60" as="geometry" />
        </mxCell>
        <mxCell id="ZVxdiT1ZG7eHf5slKZ1F-151" value="Upload" style="rounded=1;whiteSpace=wrap;html=1;" vertex="1" parent="1">
          <mxGeometry x="370" y="1250" width="120" height="60" as="geometry" />
        </mxCell>
        <mxCell id="ZVxdiT1ZG7eHf5slKZ1F-152" value="Mvn install" style="rounded=1;whiteSpace=wrap;html=1;" vertex="1" parent="1">
          <mxGeometry x="370" y="1160" width="120" height="60" as="geometry" />
        </mxCell>
        <mxCell id="ZVxdiT1ZG7eHf5slKZ1F-153" style="edgeStyle=orthogonalEdgeStyle;rounded=0;orthogonalLoop=1;jettySize=auto;html=1;entryX=0;entryY=0.5;entryDx=0;entryDy=0;" edge="1" parent="1" source="ZVxdiT1ZG7eHf5slKZ1F-154" target="ZVxdiT1ZG7eHf5slKZ1F-144">
          <mxGeometry relative="1" as="geometry" />
        </mxCell>
        <mxCell id="ZVxdiT1ZG7eHf5slKZ1F-154" value="FPR report" style="rounded=1;whiteSpace=wrap;html=1;" vertex="1" parent="1">
          <mxGeometry x="570" y="1130" width="120" height="60" as="geometry" />
        </mxCell>
        <mxCell id="ZVxdiT1ZG7eHf5slKZ1F-155" value="" style="edgeStyle=orthogonalEdgeStyle;rounded=0;orthogonalLoop=1;jettySize=auto;html=1;" edge="1" parent="1" source="ZVxdiT1ZG7eHf5slKZ1F-156" target="ZVxdiT1ZG7eHf5slKZ1F-181">
          <mxGeometry relative="1" as="geometry" />
        </mxCell>
        <mxCell id="ZVxdiT1ZG7eHf5slKZ1F-156" value="XML report" style="rounded=1;whiteSpace=wrap;html=1;" vertex="1" parent="1">
          <mxGeometry x="570" y="1000" width="120" height="60" as="geometry" />
        </mxCell>
        <mxCell id="ZVxdiT1ZG7eHf5slKZ1F-157" value="" style="edgeStyle=orthogonalEdgeStyle;rounded=0;orthogonalLoop=1;jettySize=auto;html=1;" edge="1" parent="1" source="ZVxdiT1ZG7eHf5slKZ1F-160" target="ZVxdiT1ZG7eHf5slKZ1F-138">
          <mxGeometry relative="1" as="geometry" />
        </mxCell>
        <mxCell id="ZVxdiT1ZG7eHf5slKZ1F-158" style="edgeStyle=orthogonalEdgeStyle;rounded=0;orthogonalLoop=1;jettySize=auto;html=1;entryX=0;entryY=0.5;entryDx=0;entryDy=0;" edge="1" parent="1" source="ZVxdiT1ZG7eHf5slKZ1F-160" target="ZVxdiT1ZG7eHf5slKZ1F-134">
          <mxGeometry relative="1" as="geometry" />
        </mxCell>
        <mxCell id="ZVxdiT1ZG7eHf5slKZ1F-159" style="edgeStyle=orthogonalEdgeStyle;rounded=0;orthogonalLoop=1;jettySize=auto;html=1;entryX=0;entryY=0.5;entryDx=0;entryDy=0;" edge="1" parent="1" source="ZVxdiT1ZG7eHf5slKZ1F-160" target="ZVxdiT1ZG7eHf5slKZ1F-142">
          <mxGeometry relative="1" as="geometry">
            <Array as="points">
              <mxPoint x="150" y="1280" />
              <mxPoint x="150" y="1570" />
            </Array>
          </mxGeometry>
        </mxCell>
        <mxCell id="ZVxdiT1ZG7eHf5slKZ1F-160" value="Git clone&lt;br&gt;webhook:&lt;br&gt;push events" style="rounded=1;whiteSpace=wrap;html=1;" vertex="1" parent="1">
          <mxGeometry y="1250" width="120" height="60" as="geometry" />
        </mxCell>
        <mxCell id="ZVxdiT1ZG7eHf5slKZ1F-161" value="" style="edgeStyle=orthogonalEdgeStyle;rounded=0;orthogonalLoop=1;jettySize=auto;html=1;" edge="1" parent="1" source="ZVxdiT1ZG7eHf5slKZ1F-162" target="ZVxdiT1ZG7eHf5slKZ1F-164">
          <mxGeometry relative="1" as="geometry" />
        </mxCell>
        <mxCell id="ZVxdiT1ZG7eHf5slKZ1F-162" value="Scan" style="rounded=1;whiteSpace=wrap;html=1;" vertex="1" parent="1">
          <mxGeometry x="370" y="1340" width="120" height="60" as="geometry" />
        </mxCell>
        <mxCell id="ZVxdiT1ZG7eHf5slKZ1F-163" style="edgeStyle=orthogonalEdgeStyle;rounded=0;orthogonalLoop=1;jettySize=auto;html=1;entryX=0;entryY=0.5;entryDx=0;entryDy=0;" edge="1" parent="1" source="ZVxdiT1ZG7eHf5slKZ1F-164" target="ZVxdiT1ZG7eHf5slKZ1F-144">
          <mxGeometry relative="1" as="geometry">
            <mxPoint x="810" y="1370" as="targetPoint" />
          </mxGeometry>
        </mxCell>
        <mxCell id="ZVxdiT1ZG7eHf5slKZ1F-164" value="平台查看结果" style="whiteSpace=wrap;html=1;rounded=1;" vertex="1" parent="1">
          <mxGeometry x="570" y="1340" width="120" height="60" as="geometry" />
        </mxCell>
        <mxCell id="ZVxdiT1ZG7eHf5slKZ1F-165" style="edgeStyle=orthogonalEdgeStyle;rounded=0;orthogonalLoop=1;jettySize=auto;html=1;entryX=0;entryY=0.5;entryDx=0;entryDy=0;" edge="1" parent="1" source="ZVxdiT1ZG7eHf5slKZ1F-166" target="ZVxdiT1ZG7eHf5slKZ1F-172">
          <mxGeometry relative="1" as="geometry" />
        </mxCell>
        <mxCell id="ZVxdiT1ZG7eHf5slKZ1F-166" value="越权检测" style="rounded=1;whiteSpace=wrap;html=1;" vertex="1" parent="1">
          <mxGeometry x="370" y="1450" width="120" height="60" as="geometry" />
        </mxCell>
        <mxCell id="ZVxdiT1ZG7eHf5slKZ1F-167" value="" style="edgeStyle=orthogonalEdgeStyle;rounded=0;orthogonalLoop=1;jettySize=auto;html=1;" edge="1" parent="1" source="ZVxdiT1ZG7eHf5slKZ1F-168" target="ZVxdiT1ZG7eHf5slKZ1F-172">
          <mxGeometry relative="1" as="geometry" />
        </mxCell>
        <mxCell id="ZVxdiT1ZG7eHf5slKZ1F-168" value="SQL注入检测" style="rounded=1;whiteSpace=wrap;html=1;" vertex="1" parent="1">
          <mxGeometry x="370" y="1540" width="120" height="60" as="geometry" />
        </mxCell>
        <mxCell id="ZVxdiT1ZG7eHf5slKZ1F-169" style="edgeStyle=orthogonalEdgeStyle;rounded=0;orthogonalLoop=1;jettySize=auto;html=1;entryX=0;entryY=0.5;entryDx=0;entryDy=0;" edge="1" parent="1" source="ZVxdiT1ZG7eHf5slKZ1F-170" target="ZVxdiT1ZG7eHf5slKZ1F-172">
          <mxGeometry relative="1" as="geometry" />
        </mxCell>
        <mxCell id="ZVxdiT1ZG7eHf5slKZ1F-170" value="Actuator未授权访问" style="rounded=1;whiteSpace=wrap;html=1;" vertex="1" parent="1">
          <mxGeometry x="370" y="1630" width="120" height="60" as="geometry" />
        </mxCell>
        <mxCell id="ZVxdiT1ZG7eHf5slKZ1F-171" style="edgeStyle=orthogonalEdgeStyle;rounded=0;orthogonalLoop=1;jettySize=auto;html=1;entryX=0;entryY=0.5;entryDx=0;entryDy=0;" edge="1" parent="1" source="ZVxdiT1ZG7eHf5slKZ1F-172" target="ZVxdiT1ZG7eHf5slKZ1F-144">
          <mxGeometry relative="1" as="geometry" />
        </mxCell>
        <mxCell id="ZVxdiT1ZG7eHf5slKZ1F-172" value="邮件查看结果" style="whiteSpace=wrap;html=1;rounded=1;" vertex="1" parent="1">
          <mxGeometry x="570" y="1540" width="120" height="60" as="geometry" />
        </mxCell>
        <mxCell id="ZVxdiT1ZG7eHf5slKZ1F-173" value="" style="edgeStyle=orthogonalEdgeStyle;rounded=0;orthogonalLoop=1;jettySize=auto;html=1;" edge="1" parent="1" source="ZVxdiT1ZG7eHf5slKZ1F-175" target="ZVxdiT1ZG7eHf5slKZ1F-130">
          <mxGeometry relative="1" as="geometry" />
        </mxCell>
        <mxCell id="ZVxdiT1ZG7eHf5slKZ1F-174" style="edgeStyle=orthogonalEdgeStyle;rounded=0;orthogonalLoop=1;jettySize=auto;html=1;entryX=0;entryY=0.5;entryDx=0;entryDy=0;" edge="1" parent="1" source="ZVxdiT1ZG7eHf5slKZ1F-175" target="ZVxdiT1ZG7eHf5slKZ1F-178">
          <mxGeometry relative="1" as="geometry">
            <mxPoint x="-110" y="1330" as="targetPoint" />
            <Array as="points">
              <mxPoint x="-345" y="1370" />
              <mxPoint x="-140" y="1370" />
              <mxPoint x="-140" y="1280" />
            </Array>
          </mxGeometry>
        </mxCell>
        <mxCell id="ZVxdiT1ZG7eHf5slKZ1F-175" value="已有项目文件夹" style="rhombus;whiteSpace=wrap;html=1;rounded=1;" vertex="1" parent="1">
          <mxGeometry x="-390" y="1240" width="90" height="80" as="geometry" />
        </mxCell>
        <mxCell id="ZVxdiT1ZG7eHf5slKZ1F-176" value="否" style="text;html=1;align=center;verticalAlign=middle;resizable=0;points=[];autosize=1;strokeColor=none;fillColor=none;" vertex="1" parent="1">
          <mxGeometry x="-290" y="1250" width="40" height="30" as="geometry" />
        </mxCell>
        <mxCell id="ZVxdiT1ZG7eHf5slKZ1F-177" value="" style="edgeStyle=orthogonalEdgeStyle;rounded=0;orthogonalLoop=1;jettySize=auto;html=1;" edge="1" parent="1" source="ZVxdiT1ZG7eHf5slKZ1F-178" target="ZVxdiT1ZG7eHf5slKZ1F-160">
          <mxGeometry relative="1" as="geometry" />
        </mxCell>
        <mxCell id="ZVxdiT1ZG7eHf5slKZ1F-178" value="新建项目" style="whiteSpace=wrap;html=1;rounded=1;" vertex="1" parent="1">
          <mxGeometry x="-110" y="1250" width="80" height="60" as="geometry" />
        </mxCell>
        <mxCell id="ZVxdiT1ZG7eHf5slKZ1F-179" value="是" style="text;html=1;align=center;verticalAlign=middle;resizable=0;points=[];autosize=1;strokeColor=none;fillColor=none;" vertex="1" parent="1">
          <mxGeometry x="-290" y="1340" width="40" height="30" as="geometry" />
        </mxCell>
        <mxCell id="ZVxdiT1ZG7eHf5slKZ1F-180" value="" style="edgeStyle=orthogonalEdgeStyle;rounded=0;orthogonalLoop=1;jettySize=auto;html=1;" edge="1" parent="1" source="ZVxdiT1ZG7eHf5slKZ1F-181" target="ZVxdiT1ZG7eHf5slKZ1F-183">
          <mxGeometry relative="1" as="geometry" />
        </mxCell>
        <mxCell id="ZVxdiT1ZG7eHf5slKZ1F-181" value="解析XML" style="rounded=1;whiteSpace=wrap;html=1;" vertex="1" parent="1">
          <mxGeometry x="737" y="1000" width="90" height="60" as="geometry" />
        </mxCell>
        <mxCell id="ZVxdiT1ZG7eHf5slKZ1F-182" style="edgeStyle=orthogonalEdgeStyle;rounded=0;orthogonalLoop=1;jettySize=auto;html=1;entryX=0.418;entryY=-0.097;entryDx=0;entryDy=0;entryPerimeter=0;" edge="1" parent="1" source="ZVxdiT1ZG7eHf5slKZ1F-183" target="ZVxdiT1ZG7eHf5slKZ1F-144">
          <mxGeometry relative="1" as="geometry" />
        </mxCell>
        <mxCell id="ZVxdiT1ZG7eHf5slKZ1F-183" value="比较两次结果&lt;br&gt;排除忽略、误报&lt;br&gt;输出增量漏洞" style="rounded=1;whiteSpace=wrap;html=1;" vertex="1" parent="1">
          <mxGeometry x="870" y="1000" width="120" height="60" as="geometry" />
        </mxCell>
      </root>
    </mxGraphModel>
  </diagram>
</mxfile>
